<svg width="88" height="84" viewBox="0 0 88 84" fill="none" xmlns="http://www.w3.org/2000/svg">
<path d="M1.44 45.264C1.44 43.024 1.92 40.752 2.88 38.448C3.84 36.112 5.2 33.952 6.96 31.968C8.72 29.984 11.008 28.368 13.824 27.12C16.672 25.84 19.6 25.2 22.608 25.2C25.648 25.2 28.016 25.76 29.712 26.88C31.44 28 32.304 29.552 32.304 31.536C32.304 33.52 31.648 35.072 30.336 36.192C29.056 37.28 27.584 37.824 25.92 37.824C24.256 37.824 22.752 37.472 21.408 36.768C20.096 36.032 19.04 34.992 18.24 33.648C16.512 34.48 15.024 36.112 13.776 38.544C12.528 40.976 11.904 43.424 11.904 45.888C11.904 48.32 12.304 50.256 13.104 51.696C13.904 53.104 15.04 53.808 16.512 53.808C17.984 53.808 19.28 53.056 20.4 51.552C21.552 50.048 22.128 48.24 22.128 46.128C25.36 46.128 27.664 46.384 29.04 46.896C30.448 47.408 31.152 48.512 31.152 50.208C31.152 52.864 29.712 55.36 26.832 57.696C23.952 60.032 20.336 61.2 15.984 61.2C11.632 61.2 8.112 59.856 5.424 57.168C2.768 54.48 1.44 50.512 1.44 45.264Z" fill="#F0F0F0"/>
<path d="M42.6301 48.662C40.3941 48.662 39.2761 46.8273 39.2761 43.158C39.2761 39.4887 40.1647 36.3353 41.9421 33.698C45.0381 34.6727 49.6534 35.16 55.7881 35.16C55.6734 30.688 55.6161 27.334 55.6161 25.098C55.6161 20.5687 57.7947 18.304 62.1521 18.304C64.6747 18.304 66.9394 18.82 68.9461 19.852C68.0287 22.088 67.5701 24.84 67.5701 28.108C67.5701 31.376 67.6274 33.6407 67.7421 34.902C71.2394 34.73 74.7654 34.644 78.3201 34.644C82.8494 34.644 85.1141 36.8227 85.1141 41.18C85.1141 43.7027 84.5981 45.9673 83.5661 47.974C81.3301 47.0567 78.1767 46.598 74.1061 46.598C72.8447 46.598 71.0674 46.6553 68.7741 46.77C69.3474 53.0767 69.6341 57.7493 69.6341 60.788C69.6341 63.024 67.7994 64.142 64.1301 64.142C60.4607 64.142 57.3074 63.2533 54.6701 61.476C55.6447 58.38 56.1321 53.8507 56.1321 47.888C50.6854 48.404 46.1847 48.662 42.6301 48.662Z" fill="#F0F0F0"/>
</svg>
