<svg width="328" height="47" viewBox="0 0 328 47" fill="none" xmlns="http://www.w3.org/2000/svg">
<path d="M0.44 20.264C0.44 18.024 0.92 15.752 1.88 13.448C2.84 11.112 4.2 8.952 5.96 6.968C7.72 4.984 10.008 3.368 12.824 2.12C15.672 0.839998 18.6 0.199999 21.608 0.199999C24.648 0.199999 27.016 0.759998 28.712 1.88C30.44 3 31.304 4.552 31.304 6.536C31.304 8.52 30.648 10.072 29.336 11.192C28.056 12.28 26.584 12.824 24.92 12.824C23.256 12.824 21.752 12.472 20.408 11.768C19.096 11.032 18.04 9.992 17.24 8.648C15.512 9.48 14.024 11.112 12.776 13.544C11.528 15.976 10.904 18.424 10.904 20.888C10.904 23.32 11.304 25.256 12.104 26.696C12.904 28.104 14.04 28.808 15.512 28.808C16.984 28.808 18.28 28.056 19.4 26.552C20.552 25.048 21.128 23.24 21.128 21.128C24.36 21.128 26.664 21.384 28.04 21.896C29.448 22.408 30.152 23.512 30.152 25.208C30.152 27.864 28.712 30.36 25.832 32.696C22.952 35.032 19.336 36.2 14.984 36.2C10.632 36.2 7.112 34.856 4.424 32.168C1.768 29.48 0.44 25.512 0.44 20.264ZM57.5896 9.848C59.3816 9.848 60.9176 10.568 62.1976 12.008C63.5096 13.448 64.1656 15.544 64.1656 18.296C64.1656 21.016 63.6856 23.544 62.7256 25.88C61.7656 28.184 60.5016 30.072 58.9336 31.544C57.3656 33.016 55.5896 34.168 53.6056 35C51.6216 35.8 49.5896 36.2 47.5096 36.2C43.3176 36.2 40.0056 35.048 37.5736 32.744C35.1416 30.44 33.9256 27.384 33.9256 23.576C33.9256 18.424 35.5736 14.248 38.8696 11.048C42.1976 7.816 46.4216 6.2 51.5416 6.2C52.6936 6.2 53.8456 6.328 54.9976 6.584C55.3496 7.64 55.5416 8.84 55.5736 10.184C56.2456 9.96 56.9176 9.848 57.5896 9.848ZM51.6856 16.52C51.6856 15.624 51.8936 14.616 52.3096 13.496C52.7576 12.376 53.4616 11.48 54.4216 10.808C50.1976 11.704 47.2856 13.416 45.6856 15.944C44.3096 18.12 43.6216 20.36 43.6216 22.664C43.6216 24.968 44.0856 26.824 45.0136 28.232C45.9736 29.608 47.1896 30.296 48.6616 30.296C51.9256 30.296 54.2296 28.168 55.5736 23.912C52.9816 22.312 51.6856 19.848 51.6856 16.52ZM74.2381 36.2C72.3501 36.2 70.9581 35.704 70.0621 34.712C69.1661 33.72 68.7181 32.408 68.7181 30.776C68.7181 29.144 69.0381 26.488 69.6781 22.808C70.3501 19.128 71.0381 15.768 71.7421 12.728L69.2461 8.888C72.4141 7.096 75.3421 6.2 78.0301 6.2C80.7181 6.2 82.0621 7.416 82.0621 9.848C82.0621 11.448 81.6941 13.08 80.9581 14.744L81.4381 14.984C84.8621 9.128 89.2141 6.2 94.4941 6.2C98.3661 6.2 100.302 8.136 100.302 12.008C100.302 13.672 99.8221 16.488 98.8621 20.456C97.9341 24.424 97.4701 27.416 97.4701 29.432C97.4701 31.448 97.8061 32.92 98.4781 33.848C96.7821 35.416 94.9901 36.2 93.1021 36.2C89.4221 36.2 87.5821 34.216 87.5821 30.248C87.5821 28.776 88.0621 26.28 89.0221 22.76C89.9821 19.24 90.4621 16.952 90.4621 15.896C90.4621 14.456 89.9181 13.736 88.8301 13.736C87.9341 13.736 86.9101 14.136 85.7581 14.936C84.6061 15.704 83.4861 16.76 82.3981 18.104C81.3421 19.416 80.4461 21.096 79.7101 23.144C78.9741 25.16 78.6061 27.224 78.6061 29.336C78.6061 31.416 78.9421 32.92 79.6141 33.848C77.9181 35.416 76.1261 36.2 74.2381 36.2ZM120.405 12.584C119.221 12.936 118.277 13.448 117.573 14.12C116.869 14.76 116.245 15.688 115.701 16.904C121.109 17.704 124.917 18.856 127.125 20.36C129.333 21.864 130.437 24.008 130.437 26.792C130.437 28.552 129.941 30.088 128.949 31.4C127.957 32.68 126.709 33.656 125.205 34.328C122.261 35.576 119.365 36.2 116.517 36.2C108.421 36.2 104.373 34.456 104.373 30.968C104.373 29.208 105.157 27.448 106.725 25.688C107.525 26.808 108.725 27.768 110.325 28.568C111.957 29.368 113.541 29.768 115.077 29.768C117.733 29.768 119.333 28.6 119.877 26.264C115.013 25.688 111.493 24.6 109.317 23C107.141 21.4 106.053 19.144 106.053 16.232C106.053 13.928 106.805 11.992 108.309 10.424C109.845 8.856 111.733 7.768 113.973 7.16C116.245 6.52 118.789 6.2 121.605 6.2C124.453 6.2 126.789 6.744 128.613 7.832C130.469 8.888 131.397 10.184 131.397 11.72C131.397 13.256 130.853 14.44 129.765 15.272C128.709 16.104 127.541 16.52 126.261 16.52C125.013 16.52 123.861 16.184 122.805 15.512C121.781 14.84 120.981 13.864 120.405 12.584ZM136.513 17.672C136.289 16.776 136.177 15.944 136.177 15.176C136.177 13.608 136.641 12.424 137.569 11.624C138.497 10.824 139.697 10.424 141.169 10.424C141.169 8.76 140.737 6.952 139.873 5C141.441 3.848 142.865 2.984 144.145 2.408C145.457 1.8 146.833 1.496 148.273 1.496C149.713 1.496 150.705 1.768 151.249 2.312C151.825 2.824 152.113 3.624 152.113 4.712C152.113 5.8 151.889 7.496 151.441 9.8C152.721 9.608 154.017 9.336 155.329 8.984C155.553 9.656 155.665 10.52 155.665 11.576C155.665 12.632 155.249 13.624 154.417 14.552C153.617 15.448 152.433 15.896 150.865 15.896H150.145C148.993 21.112 148.417 25.128 148.417 27.944C148.417 30.76 148.913 32.728 149.905 33.848C148.113 35.416 146.209 36.2 144.193 36.2C142.177 36.2 140.721 35.608 139.825 34.424C138.961 33.208 138.529 31.336 138.529 28.808C138.529 27.272 139.089 23.24 140.209 16.712C138.929 16.936 137.697 17.256 136.513 17.672ZM158.765 30.248C158.765 28.968 159.085 26.488 159.725 22.808C160.397 19.128 161.085 15.768 161.789 12.728L159.293 8.888C163.293 7.096 166.093 6.2 167.693 6.2C169.325 6.2 170.141 7.224 170.141 9.272C170.141 10.392 169.613 12.728 168.557 16.28L169.037 16.52C171.341 9.64 174.205 6.2 177.629 6.2C179.197 6.2 180.397 6.68 181.229 7.64C182.061 8.6 182.477 9.672 182.477 10.856C182.477 12.616 181.821 14.12 180.509 15.368C179.197 16.616 177.229 17.24 174.605 17.24C170.637 17.24 168.653 21.32 168.653 29.48C168.653 31.464 168.989 32.92 169.661 33.848C167.677 35.416 165.853 36.2 164.189 36.2C160.573 36.2 158.765 34.216 158.765 30.248ZM192.235 36.2C189.419 36.2 187.451 35.512 186.331 34.136C185.211 32.76 184.651 31.032 184.651 28.952C184.651 26.84 185.003 23.96 185.707 20.312C186.411 16.664 186.763 14.024 186.763 12.392C186.763 10.76 186.427 9.48 185.755 8.552C188.731 6.984 191.243 6.2 193.291 6.2C194.603 6.2 195.547 6.472 196.123 7.016C196.731 7.528 197.035 8.376 197.035 9.56C197.035 10.744 196.539 13.656 195.547 18.296C194.587 22.904 194.107 25.752 194.107 26.84C194.107 27.928 194.411 28.792 195.019 29.432C195.627 30.04 196.427 30.344 197.419 30.344C198.411 30.344 199.467 29.96 200.587 29.192C201.707 28.392 202.619 27.272 203.323 25.832C203.771 23.24 204.651 19.144 205.963 13.544L203.083 9.704C206.315 7.368 209.387 6.2 212.299 6.2C213.739 6.2 214.763 6.472 215.371 7.016C216.011 7.528 216.331 8.328 216.331 9.416C216.331 10.472 215.739 13.528 214.555 18.584C213.403 23.64 212.827 27.24 212.827 29.384C212.827 31.496 213.323 32.984 214.315 33.848C212.523 35.416 210.635 36.2 208.651 36.2C206.699 36.2 205.291 35.768 204.427 34.904C203.563 34.04 203.131 32.904 203.131 31.496L202.651 31.256C201.595 32.792 200.123 34.008 198.235 34.904C196.379 35.768 194.379 36.2 192.235 36.2ZM234.124 34.04C232.62 34.584 231.116 34.856 229.612 34.856C228.108 34.856 226.844 34.408 225.82 33.512C224.796 32.616 224.204 31.4 224.044 29.864C223.884 28.328 223.74 26.104 223.612 23.192C223.484 20.248 223.356 18.168 223.228 16.952C222.812 12.888 221.532 9.992 219.388 8.264C220.892 6.888 222.78 6.2 225.052 6.2C226.3 6.2 227.388 6.536 228.316 7.208C229.244 7.848 229.98 8.712 230.523 9.8C231.1 10.856 231.564 12.232 231.916 13.928C232.46 16.744 232.732 20.552 232.732 25.352C232.732 26.536 232.684 27.928 232.588 29.528H235.372C238.668 20.632 240.316 14.568 240.316 11.336C240.316 10.248 240.076 9.224 239.596 8.264C241.836 6.888 243.788 6.2 245.452 6.2C248.556 6.2 250.108 7.992 250.108 11.576C250.108 14.424 248.796 19.432 246.172 26.6C245.692 27.912 245.42 28.68 245.356 28.904C241.292 40.488 235.516 46.28 228.028 46.28C225.756 46.28 223.884 45.784 222.412 44.792C220.94 43.832 220.204 42.552 220.204 40.952C220.204 39.384 220.796 37.736 221.98 36.008C223.516 38.184 225.436 39.272 227.74 39.272C229.052 39.272 230.268 38.84 231.388 37.976C232.54 37.112 233.452 35.8 234.124 34.04ZM267.451 36.2C263.067 36.2 259.675 35.064 257.275 32.792C254.907 30.52 253.723 27.448 253.723 23.576C253.723 18.424 255.483 14.248 259.003 11.048C262.555 7.816 267.003 6.2 272.347 6.2C275.323 6.2 277.579 6.872 279.115 8.216C280.651 9.528 281.419 11.272 281.419 13.448C281.419 16.424 279.963 18.904 277.051 20.888C274.171 22.84 269.707 23.832 263.659 23.864C263.755 25.912 264.219 27.528 265.051 28.712C265.883 29.864 266.923 30.44 268.171 30.44C269.419 30.44 270.491 30.024 271.387 29.192C272.315 28.36 272.779 27 272.779 25.112C277.451 25.112 279.786 26.216 279.786 28.424C279.786 30.312 278.635 32.088 276.331 33.752C274.027 35.384 271.067 36.2 267.451 36.2ZM271.531 11.816C269.899 11.816 268.395 12.632 267.019 14.264C265.675 15.896 264.699 17.816 264.091 20.024C267.291 19.768 269.691 19.048 271.291 17.864C272.923 16.648 273.739 15.368 273.739 14.024C273.739 13.384 273.531 12.856 273.115 12.44C272.731 12.024 272.203 11.816 271.531 11.816Z" fill="#CF933A"/>
<path d="M304.172 21.416C302.924 21.416 302.3 20.392 302.3 18.344C302.3 16.296 302.796 14.536 303.788 13.064C305.516 13.608 308.092 13.88 311.516 13.88C311.452 11.384 311.42 9.512 311.42 8.264C311.42 5.736 312.636 4.472 315.068 4.472C316.476 4.472 317.74 4.76 318.86 5.336C318.348 6.584 318.092 8.12 318.092 9.944C318.092 11.768 318.124 13.032 318.188 13.736C320.14 13.64 322.108 13.592 324.092 13.592C326.62 13.592 327.884 14.808 327.884 17.24C327.884 18.648 327.596 19.912 327.02 21.032C325.772 20.52 324.012 20.264 321.74 20.264C321.036 20.264 320.044 20.296 318.764 20.36C319.084 23.88 319.244 26.488 319.244 28.184C319.244 29.432 318.22 30.056 316.172 30.056C314.124 30.056 312.364 29.56 310.892 28.568C311.436 26.84 311.708 24.312 311.708 20.984C308.668 21.272 306.156 21.416 304.172 21.416Z" fill="#5EB6D2"/>
</svg>
